{"title":"Lucifer S02E03 720p WEB-DL HEVC 2CH x265","uid":16035847,"size":344554243,"categoryP":"video","categoryS":"hd___tv_shows","magnet":"?xt=urn:btih:ff22544db717b73d694c47402f59836a27d068a6&amp;dn=Lucifer+S02E03+720p+WEB-DL+HEVC+2CH+x265&amp;tr=udp%3A%2F%2Ftracker.leechers-paradise.org%3A6969&amp;tr=udp%3A%2F%2Fzer0day.ch%3A1337&amp;tr=udp%3A%2F%2Fopen.demonii.com%3A1337&amp;tr=udp%3A%2F%2Ftracker.coppersurfer.tk%3A6969&amp;tr=udp%3A%2F%2Fexodus.desync.com%3A6969","seeders":3,"leechers":4,"uploader":"nayhtut","files":1,"time":1476481538,"description":"Source:Lucifer S02E03 1080p WEB-DL DD5.1 H264-RARBG(1.72 GB)\r\n\r\n \r\nComplete name: Lucifer.S02E03.720p.WEB-DL.HEVC.2CH.x265.mkv\r\nFormat                                   : Matroska\r\nFormat version                           : Version 4 / Version 2\r\nFile size                                : 329 MiB\r\nDuration                                 : 43mn 56s\r\nOverall bit rate                         : 1 045 Kbps\r\nWriting application                      : Lavf57.25.100\r\nWriting library                          : Lavf57.25.100\r\n\r\nVideo\r\n\r\nID                                       : 1\r\nFormat                                   : V_MPEGH/ISO/HEVC\r\nCodec ID                                 : V_MPEGH/ISO/HEVC\r\nDuration                                 : 43mn 56s\r\nBit rate                                 : 833 Kbps\r\nWidth                                    : 1 280 pixels\r\nHeight                                   : 718 pixels\r\nDisplay aspect ratio                     : 16:9\r\nFrame rate                               : 25.000 fps\r\nBits/(Pixel*Frame)                       : 0.036\r\nStream size                              : 262 MiB (80%)\r\nWriting library                          : Lavc57.48.101 libx265\r\nLanguage                                 : English\r\nDefault                                  : Yes\r\nForced                                   : No\r\nDURATION                                 : 00:43:56.651000000\r\n\r\nAudio\r\n\r\nID                                       : 2\r\nFormat                                   : AC-3\r\nFormat/Info                              : Audio Coding 3\r\nMode extension                           : CM (complete main)\r\nFormat settings, Endianness              : Big\r\nCodec ID                                 : A_AC3\r\nDuration                                 : 43mn 56s\r\nBit rate mode                            : Constant\r\nBit rate                                 : 192 Kbps\r\nChannel(s)                               : 2 channels\r\nChannel positions                        : Front: L R\r\nSampling rate                            : 48.0 KHz\r\nBit depth                                : 16 bits\r\nCompression mode                         : Lossy\r\nStream size                              : 60.3 MiB (18%)\r\nWriting library                          : Lavc57.24.102 ac3\r\nLanguage                                 : English\r\nDefault                                  : Yes\r\nForced                                   : No\r\nDURATION                                 : 00:43:56.703000000\r\n\r\nText\r\n\r\nID                                       : 3\r\nFormat                                   : ASS\r\nCodec ID                                 : S_TEXT/ASS","torrent":{"xt":"urn:btih:ff22544db717b73d694c47402f59836a27d068a6","amp;dn":"Lucifer+S02E03+720p+WEB-DL+HEVC+2CH+x265","amp;tr":["udp%3A%2F%2Ftracker.leechers-paradise.org%3A6969","udp%3A%2F%2Fzer0day.ch%3A1337","udp%3A%2F%2Fopen.demonii.com%3A1337","udp%3A%2F%2Ftracker.coppersurfer.tk%3A6969","udp%3A%2F%2Fexodus.desync.com%3A6969"],"infoHash":"ff22544db717b73d694c47402f59836a27d068a6","infoHashBuffer":{"type":"Buffer","data":[255,34,84,77,183,23,183,61,105,76,71,64,47,89,131,106,39,208,104,166]},"announce":[],"urlList":[]}}